<?xml version="1.0" encoding="UTF-8" standalone="no"?><svg xmlns="http://www.w3.org/2000/svg" xmlns:xlink="http://www.w3.org/1999/xlink" contentScriptType="application/ecmascript" contentStyleType="text/css" height="770px" preserveAspectRatio="none" style="width:1110px;height:770px;" version="1.1" viewBox="0 0 1110 770" width="1110px" zoomAndPan="magnify"><defs><filter height="300%" id="f1xfkogtjml45t" width="300%" x="-1" y="-1"><feGaussianBlur result="blurOut" stdDeviation="2.5"/><feColorMatrix in="blurOut" result="blurOut2" type="matrix" values="0 0 0 0 0 0 0 0 0 0 0 0 0 0 0 0 0 0 .4 0"/><feOffset dx="5.0" dy="5.0" in="blurOut2" result="blurOut3"/><feBlend in="SourceGraphic" in2="blurOut3" mode="normal"/></filter></defs><g><!--MD5=[f5b7c8a384d817d6fdb1b8c015c8231d]
entity AIS--><rect fill="#FEFECE" filter="url(#f1xfkogtjml45t)" height="47.0117" style="stroke:#000000;stroke-width:1.875;" width="188.75" x="576.875" y="708.75"/><text fill="#000000" font-family="sans-serif" font-size="17.5" lengthAdjust="spacing" textLength="163.75" x="589.375" y="739.4165">MAIANA AIS Base Kit</text><!--MD5=[2ba76110abbacead416bf6da6ca00009]
entity AIS_to_NMEA--><rect fill="#FEFECE" filter="url(#f1xfkogtjml45t)" height="47.0117" style="stroke:#000000;stroke-width:1.875;" width="410" x="466.25" y="586.25"/><text fill="#000000" font-family="sans-serif" font-size="17.5" lengthAdjust="spacing" textLength="385" x="478.75" y="616.9165">MAIANA AIS USB + RS422 Adapter (NMEA-0183)</text><!--MD5=[55d3b0a90c5f84155f5367fad5496924]
entity MUX--><polygon fill="#FEFECE" filter="url(#f1xfkogtjml45t)" points="540.625,432.5,553.125,420,801.875,420,801.875,499.0234,789.375,511.5234,540.625,511.5234,540.625,432.5" style="stroke:#000000;stroke-width:1.875;"/><line style="stroke:#000000;stroke-width:1.875;" x1="789.375" x2="801.875" y1="432.5" y2="420"/><line style="stroke:#000000;stroke-width:1.875;" x1="540.625" x2="789.375" y1="432.5" y2="432.5"/><line style="stroke:#000000;stroke-width:1.875;" x1="789.375" x2="789.375" y1="432.5" y2="511.5234"/><text fill="#000000" font-family="sans-serif" font-size="17.5" lengthAdjust="spacing" textLength="35" x="559.375" y="463.1665">MUX</text><line style="stroke:#000000;stroke-width:1.25;" x1="540.625" x2="789.375" y1="467.0117" y2="467.0117"/><line style="stroke:#000000;stroke-width:1.25;" x1="789.375" x2="801.875" y1="467.0117" y2="454.5117"/><text fill="#000000" font-family="sans-serif" font-size="17.5" lengthAdjust="spacing" textLength="211.25" x="559.375" y="490.1782">Shipmodule MiniPlex-3USB</text><!--MD5=[9f289ca539b650134df838be30977bdf]
entity comp1--><polygon fill="#FEFECE" filter="url(#f1xfkogtjml45t)" points="68.75,143.75,81.25,131.25,303.75,131.25,303.75,178.2617,291.25,190.7617,68.75,190.7617,68.75,143.75" style="stroke:#000000;stroke-width:1.875;"/><line style="stroke:#000000;stroke-width:1.875;" x1="291.25" x2="303.75" y1="143.75" y2="131.25"/><line style="stroke:#000000;stroke-width:1.875;" x1="68.75" x2="291.25" y1="143.75" y2="143.75"/><line style="stroke:#000000;stroke-width:1.875;" x1="291.25" x2="291.25" y1="143.75" y2="190.7617"/><text fill="#000000" font-family="sans-serif" font-size="17.5" lengthAdjust="spacing" textLength="185" x="87.5" y="174.4165">Computer_1 (Strategic)</text><!--MD5=[9ce2ef9ab72501d0b0a005ad96e63d6d]
entity comp2--><polygon fill="#FEFECE" filter="url(#f1xfkogtjml45t)" points="863.125,143.75,875.625,131.25,1089.375,131.25,1089.375,178.2617,1076.875,190.7617,863.125,190.7617,863.125,143.75" style="stroke:#000000;stroke-width:1.875;"/><line style="stroke:#000000;stroke-width:1.875;" x1="1076.875" x2="1089.375" y1="143.75" y2="131.25"/><line style="stroke:#000000;stroke-width:1.875;" x1="863.125" x2="1076.875" y1="143.75" y2="143.75"/><line style="stroke:#000000;stroke-width:1.875;" x1="1076.875" x2="1076.875" y1="143.75" y2="190.7617"/><text fill="#000000" font-family="sans-serif" font-size="17.5" lengthAdjust="spacing" textLength="176.25" x="881.875" y="174.4165">Computer_2 (Tactical)</text><!--MD5=[cacf98b309603177cfba91467aeead69]
entity usb_hub1--><rect fill="#FEFECE" filter="url(#f1xfkogtjml45t)" height="47.0117" style="stroke:#000000;stroke-width:1.875;" width="122.5" x="8.75" y="281.875"/><text fill="#000000" font-family="sans-serif" font-size="17.5" lengthAdjust="spacing" textLength="97.5" x="21.25" y="312.5415">USB HUB #1</text><!--MD5=[574e9358fccd19058874a9199879e1ab]
entity usb_hub2--><rect fill="#FEFECE" filter="url(#f1xfkogtjml45t)" height="47.0117" style="stroke:#000000;stroke-width:1.875;" width="122.5" x="945" y="281.875"/><text fill="#000000" font-family="sans-serif" font-size="17.5" lengthAdjust="spacing" textLength="97.5" x="957.5" y="312.5415">USB HUB #2</text><!--MD5=[7cf10fd80f7580b2c5e15283e9ebc6f7]
entity router1--><rect fill="#FEFECE" filter="url(#f1xfkogtjml45t)" height="47.0117" style="stroke:#000000;stroke-width:1.875;" width="88.75" x="488.125" y="8.75"/><text fill="#000000" font-family="sans-serif" font-size="17.5" lengthAdjust="spacing" textLength="63.75" x="500.625" y="39.4165">Router1</text><!--MD5=[655f75fa08bbe95bdc76a3d8a1755d44]
entity router2--><rect fill="#FEFECE" filter="url(#f1xfkogtjml45t)" height="47.0117" style="stroke:#000000;stroke-width:1.875;" width="88.75" x="620.625" y="8.75"/><text fill="#000000" font-family="sans-serif" font-size="17.5" lengthAdjust="spacing" textLength="63.75" x="633.125" y="39.4165">Router2</text><!--MD5=[0f7fb8c0eda049cc708733aa84a0d084]
entity Eth_switch--><rect fill="#FEFECE" filter="url(#f1xfkogtjml45t)" height="47.0117" style="stroke:#000000;stroke-width:1.875;" width="147.5" x="525" y="137.5"/><text fill="#000000" font-family="sans-serif" font-size="17.5" lengthAdjust="spacing" textLength="122.5" x="537.5" y="168.1665">Ethernet Switch</text><!--MD5=[ebfdd7cc5276e8a4319d08aade10d1ac]
entity mon1--><rect fill="#FEFECE" filter="url(#f1xfkogtjml45t)" height="47.0117" style="stroke:#000000;stroke-width:1.875;" width="201.25" x="85.625" y="8.75"/><text fill="#000000" font-family="sans-serif" font-size="17.5" lengthAdjust="spacing" textLength="176.25" x="98.125" y="39.4165">Monitor1 (Nav Station)</text><!--MD5=[cfc1d45457fb3e680c3a8d0da9d6b7b5]
entity mon2--><rect fill="#FEFECE" filter="url(#f1xfkogtjml45t)" height="47.0117" style="stroke:#000000;stroke-width:1.875;" width="170" x="891.25" y="8.75"/><text fill="#000000" font-family="sans-serif" font-size="17.5" lengthAdjust="spacing" textLength="145" x="903.75" y="39.4165">Monitor2 (Cockpit)</text><!--MD5=[c507395407d56d1b9c4b512c493dfb6d]
entity USB_to_Serial1--><rect fill="#FEFECE" filter="url(#f1xfkogtjml45t)" height="79.0234" style="stroke:#000000;stroke-width:1.875;" width="215" x="122.5" y="426.25"/><text fill="#000000" font-family="sans-serif" font-size="17.5" lengthAdjust="spacing" textLength="190" x="135" y="456.9165">USB to NMEA-0183 (#1)</text><line style="stroke:#000000;stroke-width:1.25;" x1="123.75" x2="336.25" y1="460.7617" y2="460.7617"/><text fill="#000000" font-family="sans-serif" font-size="17.5" lengthAdjust="spacing" textLength="162.5" x="135" y="483.9282">FTDI USB to RS-422</text><!--MD5=[bba3a1206c5767eaf43299e77b413f4d]
entity USB_to_Serial2--><rect fill="#FEFECE" filter="url(#f1xfkogtjml45t)" height="79.0234" style="stroke:#000000;stroke-width:1.875;" width="215" x="872.5" y="426.25"/><text fill="#000000" font-family="sans-serif" font-size="17.5" lengthAdjust="spacing" textLength="190" x="885" y="456.9165">USB to NMEA-0183 (#2)</text><line style="stroke:#000000;stroke-width:1.25;" x1="873.75" x2="1086.25" y1="460.7617" y2="460.7617"/><text fill="#000000" font-family="sans-serif" font-size="17.5" lengthAdjust="spacing" textLength="162.5" x="885" y="483.9282">FTDI USB to RS-422</text><!--MD5=[8f44a33d38c1e88eaeaaea93044635f5]
entity seatalk--><path d="M626.8053,286.1195 C631.8156,277.9999 636.7456,277.6273 642.3958,285.4955 C645.0513,277.8019 651.5488,276.9648 657.2207,281.9755 C659.8878,274.7741 666.4754,273.3176 671.4855,279.4733 C677.6666,271.9114 682.5877,274.6153 686.7332,281.6061 C694.3771,274.6058 699.474,276.6687 703.5983,285.3834 C708.5213,279.0836 714.5033,279.5208 718.5836,286.3455 C730.1756,291.5367 731.8044,298.149 723.6637,307.9749 C732.3534,317.7363 729.1486,323.5826 718.141,327.8787 C714.072,336.0619 707.6137,334.7843 703.2063,328.2215 C698.0531,336.6645 692.6609,336.2391 687.0435,328.6907 C682.5434,336.9313 676.3428,337.0896 671.6763,328.8458 C666.1629,333.5451 662.0975,332.8132 658.4875,326.5548 C653.3174,335.3 645.8996,333.9959 641.6069,325.6864 C638.3668,331.9678 631.6801,332.2544 627.549,326.749 C616.0074,323.1098 616.0179,313.2318 624.2252,306.3714 C616.4987,299.7855 615.4232,290.2709 626.8053,286.1195 " fill="#FEFECE" filter="url(#f1xfkogtjml45t)" style="stroke:#000000;stroke-width:1.875;"/><text fill="#000000" font-family="sans-serif" font-size="17.5" lengthAdjust="spacing" textLength="75" x="633.75" y="312.5415">SeaTalk1</text><!--MD5=[d747d3941fab0b1c871f78dd7a11e276]
entity instr--><rect fill="#FEFECE" filter="url(#f1xfkogtjml45t)" height="69.0234" style="stroke:#000000;stroke-width:1.875;" width="128.75" x="771.875" y="271.25"/><text fill="#000000" font-family="sans-serif" font-size="17.5" lengthAdjust="spacing" textLength="103.75" x="784.375" y="301.9165">Depth/Speed</text><text fill="#000000" font-family="sans-serif" font-size="17.5" lengthAdjust="spacing" textLength="40" x="784.375" y="323.9282">Wind</text><!--MD5=[31e3ec59327e273962ce661ad70afaa5]
entity AP--><rect fill="#FEFECE" filter="url(#f1xfkogtjml45t)" height="47.0117" style="stroke:#000000;stroke-width:1.875;" width="95" x="476.25" y="281.875"/><text fill="#000000" font-family="sans-serif" font-size="17.5" lengthAdjust="spacing" textLength="70" x="488.75" y="312.5415">AutoPilot</text><!--MD5=[2f5ce3e1a27480661ac47cd8fd5dd32c]
entity IMU1--><rect fill="#FEFECE" filter="url(#f1xfkogtjml45t)" height="47.0117" style="stroke:#000000;stroke-width:1.875;" width="73.75" x="348.125" y="137.5"/><text fill="#000000" font-family="sans-serif" font-size="17.5" lengthAdjust="spacing" textLength="48.75" x="360.625" y="168.1665">IMU_1</text><!--MD5=[a645e4007e439bfe7661e76e14217d4a]
entity IMU2--><rect fill="#FEFECE" filter="url(#f1xfkogtjml45t)" height="47.0117" style="stroke:#000000;stroke-width:1.875;" width="73.75" x="745.625" y="137.5"/><text fill="#000000" font-family="sans-serif" font-size="17.5" lengthAdjust="spacing" textLength="48.75" x="758.125" y="168.1665">IMU_2</text><!--MD5=[b6813d4f5a6bea06e1e9e6d314623338]
entity NavTex--><rect fill="#FEFECE" filter="url(#f1xfkogtjml45t)" height="79.0234" style="stroke:#000000;stroke-width:1.875;" width="256.25" x="175.625" y="266.25"/><text fill="#000000" font-family="sans-serif" font-size="17.5" lengthAdjust="spacing" textLength="58.75" x="188.125" y="296.9165">NavTex</text><line style="stroke:#000000;stroke-width:1.25;" x1="176.875" x2="430.625" y1="300.7617" y2="300.7617"/><text fill="#000000" font-family="sans-serif" font-size="17.5" lengthAdjust="spacing" textLength="231.25" x="188.125" y="323.9282">Nasa Marine PC-NavTex USB</text><!--MD5=[b030dae54ad88894ab82981e89da95c9]
link AIS_to_NMEA to AIS--><path codeLine="92" d="M671.25,633.825 C671.25,655.1375 671.25,686.95 671.25,708.375 " fill="none" id="AIS_to_NMEA-AIS" style="stroke:#A80036;stroke-width:1.25;"/><!--MD5=[4bed90069e44cf933319571d7c66e17a]
link MUX to AIS_to_NMEA--><path codeLine="94" d="M671.25,511.375 C671.25,536.2375 671.25,566.1625 671.25,586.225 " fill="none" id="MUX-AIS_to_NMEA" style="stroke:#A80036;stroke-width:1.25;"/><!--MD5=[7d0c19a06c86411d2621cafa34f1b440]
link USB_to_Serial1 to MUX--><path codeLine="95" d="M337.725,465.625 C405.2625,465.625 472.7875,465.625 540.3125,465.625 " fill="none" id="USB_to_Serial1-MUX" style="stroke:#A80036;stroke-width:1.25;"/><!--MD5=[ee34596fa281b874ddc5cc5e358ebf64]
link MUX to USB_to_Serial2--><path codeLine="96" d="M802.1125,465.625 C825.5,465.625 848.9,465.625 872.2875,465.625 " fill="none" id="MUX-USB_to_Serial2" style="stroke:#A80036;stroke-width:1.25;"/><!--MD5=[1e991018c604224e21bee33be46e950a]
link seatalk to MUX--><path codeLine="97" d="M671.25,335.7625 C671.25,359.2125 671.25,392.675 671.25,419.5875 " fill="none" id="seatalk-MUX" style="stroke:#A80036;stroke-width:1.25;"/><!--MD5=[9f54148a75ad9c595cf3695709df9036]
link seatalk to instr--><path codeLine="99" d="M727.65,305.625 C742.35,305.625 757.0625,305.625 771.7625,305.625 " fill="none" id="seatalk-instr" style="stroke:#A80036;stroke-width:1.25;"/><!--MD5=[ad6772f1975432038ebb751cfe1f2a7f]
link AP to seatalk--><path codeLine="100" d="M571.575,305.625 C585.975,305.625 600.3875,305.625 614.7875,305.625 " fill="none" id="AP-seatalk" style="stroke:#A80036;stroke-width:1.25;"/><!--MD5=[b4110a565eb63c468bf419165dcda8e1]
link mon1 to comp1--><path codeLine="102" d="M186.25,56.325 C186.25,77.175 186.25,108.2625 186.25,130.9625 " fill="none" id="mon1-comp1" style="stroke:#A80036;stroke-width:1.25;"/><!--MD5=[22dd986fdf6041bcc52ce14bb7c5c6e1]
link mon2 to comp2--><path codeLine="103" d="M976.25,56.325 C976.25,77.175 976.25,108.2625 976.25,130.9625 " fill="none" id="mon2-comp2" style="stroke:#A80036;stroke-width:1.25;"/><!--MD5=[c7a617a653465724799adbd37ef139ab]
link comp1 to IMU1--><path codeLine="105" d="M303.875,161.25 C318.55,161.25 333.2375,161.25 347.925,161.25 " fill="none" id="comp1-IMU1" style="stroke:#A80036;stroke-width:1.25;"/><!--MD5=[fec72a0fdc4e68e40c8e7645bbf772ed]
link IMU2 to comp2--><path codeLine="106" d="M819.5875,161.25 C834.0625,161.25 848.55,161.25 863.0375,161.25 " fill="none" id="IMU2-comp2" style="stroke:#A80036;stroke-width:1.25;"/><!--MD5=[e1cd31dbbc3c1ef78dc4eb63c17a1f02]
link usb_hub1 to NavTex--><path codeLine="108" d="M131.6375,305.625 C146.2,305.625 160.7625,305.625 175.3375,305.625 " fill="none" id="usb_hub1-NavTex" style="stroke:#A80036;stroke-width:1.25;"/><!--MD5=[2ed3416b1855305a92b8ea3457f44374]
link comp1 to usb_hub1--><path codeLine="110" d="M162.45,191.55 C140.6625,218.1375 108.85,256.9625 88.8,281.4375 " fill="none" id="comp1-usb_hub1" style="stroke:#A80036;stroke-width:1.25;"/><!--MD5=[efbb60de1c9e942b968646a978810334]
link comp2 to usb_hub2--><path codeLine="111" d="M982.3875,191.55 C988.0125,218.1375 996.225,256.9625 1001.4,281.4375 " fill="none" id="comp2-usb_hub2" style="stroke:#A80036;stroke-width:1.25;"/><!--MD5=[9933a91f258b7dc090e382cc3f4f92ea]
link usb_hub1 to USB_to_Serial1--><path codeLine="113" d="M92.925,329.4375 C118.5,354.6125 160.325,395.7875 191.05,426.0375 " fill="none" id="usb_hub1-USB_to_Serial1" style="stroke:#A80036;stroke-width:1.25;"/><!--MD5=[57d645a400dd28191741d6a5c2afc52a]
link usb_hub2 to USB_to_Serial2--><path codeLine="114" d="M1002.4875,329.4375 C998.2875,354.6125 991.4375,395.7875 986.3875,426.0375 " fill="none" id="usb_hub2-USB_to_Serial2" style="stroke:#A80036;stroke-width:1.25;"/><!--MD5=[68cc1b15919b7f37829e6c118e35b9cf]
link router2 to Eth_switch--><path codeLine="116" d="M653.15,56.325 C641.175,79.1625 622.7375,114.275 610.7125,137.2 " fill="none" id="router2-Eth_switch" style="stroke:#A80036;stroke-width:1.25;"/><!--MD5=[ea7a86228cc7363637a66ec2773ebdf6]
link router1 to Eth_switch--><path codeLine="117" d="M544.35,56.325 C556.325,79.1625 574.7625,114.275 586.7875,137.2 " fill="none" id="router1-Eth_switch" style="stroke:#A80036;stroke-width:1.25;"/><!--MD5=[fdc45c2a1df09eb218951de378e6e882]
link comp1 to Eth_switch--><path codeLine="119" d="M242.9375,131.125 C273.225,116.7125 311.7,101.0375 348.125,93.75 C422.1375,78.9375 506.5875,112.4 556.1375,137.3125 " fill="none" id="comp1-Eth_switch" style="stroke:#A80036;stroke-width:1.25;"/><!--MD5=[511eca652ca16ab340652aeda27f923c]
link Eth_switch to comp2--><path codeLine="120" d="M638.25,137.4 C666.9125,121.55 707.25,102.15 745.625,93.75 C808.3875,80.0125 879.1,107.2375 925.475,131.1 " fill="none" id="Eth_switch-comp2" style="stroke:#A80036;stroke-width:1.25;"/><!--MD5=[942ed8879c74b94c6558bb6bf82b987a]
@startuml

rectangle AIS [
 MAIANA AIS Base Kit
]

rectangle AIS_to_NMEA [
 MAIANA AIS USB + RS422 Adapter (NMEA-0183)
]

node MUX [
 MUX
 - - - -
 Shipmodule MiniPlex-3USB
]

node comp1 [
 Computer_1 (Strategic)
]

node comp2 [
 Computer_2 (Tactical)
]

rectangle usb_hub1 [
 USB HUB #1
]

rectangle usb_hub2 [
 USB HUB #2
]


rectangle router1 [
 Router1
]

rectangle router2 [
 Router2
]

rectangle Eth_switch [
 Ethernet Switch
]

rectangle mon1 [
 Monitor1 (Nav Station)
]

rectangle mon2 [
 Monitor2 (Cockpit)
]

rectangle USB_to_Serial1 [
 USB to NMEA-0183 (#1)
 - - - -
 FTDI USB to RS-422
]

rectangle USB_to_Serial2 [
 USB to NMEA-0183 (#2)
 - - - -
 FTDI USB to RS-422
]

cloud seatalk [
 SeaTalk1
]

rectangle instr [
 Depth/Speed
 Wind
]

rectangle AP [
 AutoPilot
]

rectangle IMU1 [
 IMU_1
]

rectangle IMU2 [
 IMU_2
]

rectangle NavTex [
 NavTex
 - - - -
 Nasa Marine PC-NavTex USB
]

AIS -u- AIS_to_NMEA

MUX - - AIS_to_NMEA
MUX -l- USB_to_Serial1
MUX -r- USB_to_Serial2
MUX -u- seatalk

seatalk -r- instr
seatalk -l- AP

comp1 -u- mon1
comp2 -u- mon2

comp1 -r- IMU1
comp2 -l- IMU2

usb_hub1 -r- NavTex

comp1 -d- usb_hub1
comp2 -d- usb_hub2

usb_hub1 - - USB_to_Serial1
usb_hub2 - - USB_to_Serial2

Eth_switch -u- router2
Eth_switch -u- router1

Eth_switch -l- comp1
Eth_switch -r- comp2

@enduml

PlantUML version 1.2021.00(Sun Jan 10 05:25:05 EST 2021)
(GPL source distribution)
Java Runtime: OpenJDK Runtime Environment
JVM: OpenJDK 64-Bit Server VM
Default Encoding: Cp1252
Language: en
Country: US
--></g></svg>