<?xml version="1.0" encoding="UTF-8" standalone="no"?><svg xmlns="http://www.w3.org/2000/svg" xmlns:xlink="http://www.w3.org/1999/xlink" contentScriptType="application/ecmascript" contentStyleType="text/css" height="798.75px" preserveAspectRatio="none" style="width:1128px;height:798px;" version="1.1" viewBox="0 0 1128 798" width="1128.75px" zoomAndPan="magnify"><defs><filter height="300%" id="fvuflal60uzzs" width="300%" x="-1" y="-1"><feGaussianBlur result="blurOut" stdDeviation="2.5"/><feColorMatrix in="blurOut" result="blurOut2" type="matrix" values="0 0 0 0 0 0 0 0 0 0 0 0 0 0 0 0 0 0 .4 0"/><feOffset dx="5.0" dy="5.0" in="blurOut2" result="blurOut3"/><feBlend in="SourceGraphic" in2="blurOut3" mode="normal"/></filter></defs><g><!--MD5=[f5b7c8a384d817d6fdb1b8c015c8231d]
entity AIS--><rect fill="#FEFECE" filter="url(#fvuflal60uzzs)" height="47.0117" style="stroke:#000000;stroke-width:1.875;" width="188.75" x="400.625" y="737.9456"/><text fill="#000000" font-family="sans-serif" font-size="17.5" lengthAdjust="spacing" textLength="163.75" x="413.125" y="768.6121">MAIANA AIS Base Kit</text><!--MD5=[2ba76110abbacead416bf6da6ca00009]
entity AIS_to_NMEA--><rect fill="#FEFECE" filter="url(#fvuflal60uzzs)" height="47.0117" style="stroke:#000000;stroke-width:1.875;" width="410" x="290" y="614.1956"/><text fill="#000000" font-family="sans-serif" font-size="17.5" lengthAdjust="spacing" textLength="385" x="302.5" y="644.8621">MAIANA AIS USB + RS422 Adapter (NMEA-0183)</text><!--MD5=[55d3b0a90c5f84155f5367fad5496924]
entity MUX--><polygon fill="#FEFECE" filter="url(#fvuflal60uzzs)" points="504.375,437.9456,516.875,425.4456,765.625,425.4456,765.625,504.469,753.125,516.969,504.375,516.969,504.375,437.9456" style="stroke:#000000;stroke-width:1.875;"/><line style="stroke:#000000;stroke-width:1.875;" x1="753.125" x2="765.625" y1="437.9456" y2="425.4456"/><line style="stroke:#000000;stroke-width:1.875;" x1="504.375" x2="753.125" y1="437.9456" y2="437.9456"/><line style="stroke:#000000;stroke-width:1.875;" x1="753.125" x2="753.125" y1="437.9456" y2="516.969"/><text fill="#000000" font-family="sans-serif" font-size="17.5" lengthAdjust="spacing" textLength="35" x="523.125" y="468.6121">MUX</text><line style="stroke:#000000;stroke-width:1.25;" x1="504.375" x2="753.125" y1="472.4573" y2="472.4573"/><line style="stroke:#000000;stroke-width:1.25;" x1="753.125" x2="765.625" y1="472.4573" y2="459.9573"/><text fill="#000000" font-family="sans-serif" font-size="17.5" lengthAdjust="spacing" textLength="211.25" x="523.125" y="495.6238">Shipmodule MiniPlex-3USB</text><!--MD5=[9f289ca539b650134df838be30977bdf]
entity comp1--><polygon fill="#FEFECE" filter="url(#fvuflal60uzzs)" points="20,146.6956,32.5,134.1956,255,134.1956,255,181.2073,242.5,193.7073,20,193.7073,20,146.6956" style="stroke:#000000;stroke-width:1.875;"/><line style="stroke:#000000;stroke-width:1.875;" x1="242.5" x2="255" y1="146.6956" y2="134.1956"/><line style="stroke:#000000;stroke-width:1.875;" x1="20" x2="242.5" y1="146.6956" y2="146.6956"/><line style="stroke:#000000;stroke-width:1.875;" x1="242.5" x2="242.5" y1="146.6956" y2="193.7073"/><text fill="#000000" font-family="sans-serif" font-size="17.5" lengthAdjust="spacing" textLength="185" x="38.75" y="177.3621">Computer_1 (Strategic)</text><!--MD5=[9ce2ef9ab72501d0b0a005ad96e63d6d]
entity comp2--><polygon fill="#FEFECE" filter="url(#fvuflal60uzzs)" points="881.875,146.6956,894.375,134.1956,1108.125,134.1956,1108.125,181.2073,1095.625,193.7073,881.875,193.7073,881.875,146.6956" style="stroke:#000000;stroke-width:1.875;"/><line style="stroke:#000000;stroke-width:1.875;" x1="1095.625" x2="1108.125" y1="146.6956" y2="134.1956"/><line style="stroke:#000000;stroke-width:1.875;" x1="881.875" x2="1095.625" y1="146.6956" y2="146.6956"/><line style="stroke:#000000;stroke-width:1.875;" x1="1095.625" x2="1095.625" y1="146.6956" y2="193.7073"/><text fill="#000000" font-family="sans-serif" font-size="17.5" lengthAdjust="spacing" textLength="176.25" x="900.625" y="177.3621">Computer_2 (Tactical)</text><!--MD5=[cacf98b309603177cfba91467aeead69]
entity usb_hub1--><rect fill="#FEFECE" filter="url(#fvuflal60uzzs)" height="47.0117" style="stroke:#000000;stroke-width:1.875;" width="122.5" x="8.75" y="286.0706"/><text fill="#000000" font-family="sans-serif" font-size="17.5" lengthAdjust="spacing" textLength="97.5" x="21.25" y="316.7371">USB HUB #1</text><!--MD5=[574e9358fccd19058874a9199879e1ab]
entity usb_hub2--><rect fill="#FEFECE" filter="url(#fvuflal60uzzs)" height="47.0117" style="stroke:#000000;stroke-width:1.875;" width="122.5" x="945" y="286.0706"/><text fill="#000000" font-family="sans-serif" font-size="17.5" lengthAdjust="spacing" textLength="97.5" x="957.5" y="316.7371">USB HUB #2</text><!--MD5=[7cf10fd80f7580b2c5e15283e9ebc6f7]
entity router1--><rect fill="#FEFECE" filter="url(#fvuflal60uzzs)" height="47.0117" style="stroke:#000000;stroke-width:1.875;" width="88.75" x="458.125" y="10.4456"/><text fill="#000000" font-family="sans-serif" font-size="17.5" lengthAdjust="spacing" textLength="63.75" x="470.625" y="41.1121">Router1</text><!--MD5=[655f75fa08bbe95bdc76a3d8a1755d44]
entity router2--><rect fill="#FEFECE" filter="url(#fvuflal60uzzs)" height="47.0117" style="stroke:#000000;stroke-width:1.875;" width="88.75" x="686.875" y="10.4456"/><text fill="#000000" font-family="sans-serif" font-size="17.5" lengthAdjust="spacing" textLength="63.75" x="699.375" y="41.1121">Router2</text><!--MD5=[0f7fb8c0eda049cc708733aa84a0d084]
entity Eth_switch--><rect fill="#FEFECE" filter="url(#fvuflal60uzzs)" height="47.0117" style="stroke:#000000;stroke-width:1.875;" width="147.5" x="428.75" y="140.4456"/><text fill="#000000" font-family="sans-serif" font-size="17.5" lengthAdjust="spacing" textLength="122.5" x="441.25" y="171.1121">Ethernet Switch</text><!--MD5=[ebfdd7cc5276e8a4319d08aade10d1ac]
entity mon1--><rect fill="#FEFECE" filter="url(#fvuflal60uzzs)" height="47.0117" style="stroke:#000000;stroke-width:1.875;" width="201.25" x="36.875" y="10.4456"/><text fill="#000000" font-family="sans-serif" font-size="17.5" lengthAdjust="spacing" textLength="176.25" x="49.375" y="41.1121">Monitor1 (Nav Station)</text><!--MD5=[cfc1d45457fb3e680c3a8d0da9d6b7b5]
entity mon2--><rect fill="#FEFECE" filter="url(#fvuflal60uzzs)" height="47.0117" style="stroke:#000000;stroke-width:1.875;" width="170" x="910" y="10.4456"/><text fill="#000000" font-family="sans-serif" font-size="17.5" lengthAdjust="spacing" textLength="145" x="922.5" y="41.1121">Monitor2 (Cockpit)</text><!--MD5=[bba3a1206c5767eaf43299e77b413f4d]
entity USB_to_Serial2--><rect fill="#FEFECE" filter="url(#fvuflal60uzzs)" height="79.0234" style="stroke:#000000;stroke-width:1.875;" width="215" x="898.75" y="431.6956"/><text fill="#000000" font-family="sans-serif" font-size="17.5" lengthAdjust="spacing" textLength="190" x="911.25" y="462.3621">USB to NMEA-0183 (#2)</text><line style="stroke:#000000;stroke-width:1.25;" x1="900" x2="1112.5" y1="466.2073" y2="466.2073"/><text fill="#000000" font-family="sans-serif" font-size="17.5" lengthAdjust="spacing" textLength="162.5" x="911.25" y="489.3738">FTDI USB to RS-422</text><!--MD5=[8f44a33d38c1e88eaeaaea93044635f5]
entity seatalk--><path d="M626.8053,290.315 C631.8156,282.1955 636.7456,281.8229 642.3958,289.691 C645.0513,281.9975 651.5488,281.1604 657.2207,286.1711 C659.8878,278.9697 666.4754,277.5132 671.4855,283.6688 C677.6666,276.1069 682.5877,278.8108 686.7332,285.8017 C694.3771,278.8014 699.474,280.8643 703.5983,289.5789 C708.5213,283.2792 714.5033,283.7164 718.5836,290.5411 C730.1756,295.7323 731.8044,302.3446 723.6637,312.1704 C732.3534,321.9319 729.1486,327.7782 718.141,332.0742 C714.072,340.2574 707.6137,338.9799 703.2063,332.417 C698.0531,340.86 692.6609,340.4346 687.0435,332.8863 C682.5434,341.1268 676.3428,341.2851 671.6763,333.0414 C666.1629,337.7407 662.0975,337.0088 658.4875,330.7504 C653.3174,339.4956 645.8996,338.1915 641.6069,329.8819 C638.3668,336.1634 631.6801,336.4499 627.549,330.9445 C616.0074,327.3054 616.0179,317.4274 624.2252,310.5669 C616.4987,303.981 615.4232,294.4665 626.8053,290.315 " fill="#FEFECE" filter="url(#fvuflal60uzzs)" style="stroke:#000000;stroke-width:1.875;"/><text fill="#000000" font-family="sans-serif" font-size="17.5" lengthAdjust="spacing" textLength="75" x="633.75" y="316.7371">SeaTalk1</text><!--MD5=[d747d3941fab0b1c871f78dd7a11e276]
entity instr--><rect fill="#FEFECE" filter="url(#fvuflal60uzzs)" height="69.0234" style="stroke:#000000;stroke-width:1.875;" width="128.75" x="771.875" y="275.4456"/><text fill="#000000" font-family="sans-serif" font-size="17.5" lengthAdjust="spacing" textLength="103.75" x="784.375" y="306.1121">Depth/Speed</text><text fill="#000000" font-family="sans-serif" font-size="17.5" lengthAdjust="spacing" textLength="40" x="784.375" y="328.1238">Wind</text><!--MD5=[31e3ec59327e273962ce661ad70afaa5]
entity AP--><rect fill="#FEFECE" filter="url(#fvuflal60uzzs)" height="47.0117" style="stroke:#000000;stroke-width:1.875;" width="95" x="476.25" y="286.0706"/><text fill="#000000" font-family="sans-serif" font-size="17.5" lengthAdjust="spacing" textLength="70" x="488.75" y="316.7371">AutoPilot</text><!--MD5=[2f5ce3e1a27480661ac47cd8fd5dd32c]
entity IMU1--><rect fill="#FEFECE" filter="url(#fvuflal60uzzs)" height="47.0117" style="stroke:#000000;stroke-width:1.875;" width="73.75" x="299.375" y="140.4456"/><text fill="#000000" font-family="sans-serif" font-size="17.5" lengthAdjust="spacing" textLength="48.75" x="311.875" y="171.1121">IMU_1</text><!--MD5=[a645e4007e439bfe7661e76e14217d4a]
entity IMU2--><rect fill="#FEFECE" filter="url(#fvuflal60uzzs)" height="47.0117" style="stroke:#000000;stroke-width:1.875;" width="73.75" x="764.375" y="140.4456"/><text fill="#000000" font-family="sans-serif" font-size="17.5" lengthAdjust="spacing" textLength="48.75" x="776.875" y="171.1121">IMU_2</text><!--MD5=[7836a0416f99aa579c3b743659b03905]
entity VHF--><rect fill="#FEFECE" filter="url(#fvuflal60uzzs)" height="47.0117" style="stroke:#000000;stroke-width:1.875;" width="58.75" x="744.375" y="614.1956"/><text fill="#000000" font-family="sans-serif" font-size="17.5" lengthAdjust="spacing" textLength="33.75" x="756.875" y="644.8621">VHF</text><!--MD5=[b6813d4f5a6bea06e1e9e6d314623338]
entity NavTex--><rect fill="#FEFECE" filter="url(#fvuflal60uzzs)" height="79.0234" style="stroke:#000000;stroke-width:1.875;" width="256.25" x="175.625" y="270.4456"/><text fill="#000000" font-family="sans-serif" font-size="17.5" lengthAdjust="spacing" textLength="58.75" x="188.125" y="301.1121">NavTex</text><line style="stroke:#000000;stroke-width:1.25;" x1="176.875" x2="430.625" y1="304.9573" y2="304.9573"/><text fill="#000000" font-family="sans-serif" font-size="17.5" lengthAdjust="spacing" textLength="231.25" x="188.125" y="328.1238">Nasa Marine PC-NavTex USB</text><!--MD5=[b030dae54ad88894ab82981e89da95c9]
link AIS_to_NMEA to AIS--><path codeLine="90" d="M495,661.9956 C495,683.6831 495,716.0956 495,737.7456 " fill="none" id="AIS_to_NMEA-AIS" style="stroke:#A80036;stroke-width:1.25;"/><!--MD5=[4bed90069e44cf933319571d7c66e17a]
link MUX to AIS_to_NMEA--><path codeLine="92" d="M597.1125,516.8081 C570.3875,548.1831 535.7,588.9206 514.4,613.9081 " fill="none" id="MUX-AIS_to_NMEA" style="stroke:#A80036;stroke-width:1.25;"/><text fill="#000000" font-family="sans-serif" font-size="16.25" lengthAdjust="spacing" textLength="87.5" x="566.25" y="572.3145">NMEA-0183</text><!--MD5=[ee34596fa281b874ddc5cc5e358ebf64]
link MUX to USB_to_Serial2--><path codeLine="93" d="M765.8875,471.0706 C809.3125,471.0706 857.125,471.0706 898.5875,471.0706 " fill="none" id="MUX-USB_to_Serial2" style="stroke:#A80036;stroke-width:1.25;"/><text fill="#000000" font-family="sans-serif" font-size="16.25" lengthAdjust="spacing" textLength="87.5" x="788.4375" y="462.9395">NMEA-0183</text><!--MD5=[1e991018c604224e21bee33be46e950a]
link seatalk to MUX--><path codeLine="94" d="M664.6,340.1831 C659.1625,363.9956 651.3875,398.0581 645.1625,425.2956 " fill="none" id="seatalk-MUX" style="stroke:#A80036;stroke-width:1.25;"/><!--MD5=[d3503e9009a0bb04abd04d1f7c51e905]
link MUX to VHF--><path codeLine="95" d="M672.55,516.8081 C699.0375,548.1831 733.4125,588.9206 754.5125,613.9081 " fill="none" id="MUX-VHF" style="stroke:#A80036;stroke-width:1.25;"/><text fill="#000000" font-family="sans-serif" font-size="16.25" lengthAdjust="spacing" textLength="87.5" x="721.25" y="572.3145">NMEA-0183</text><!--MD5=[9f54148a75ad9c595cf3695709df9036]
link seatalk to instr--><path codeLine="97" d="M727.65,309.8206 C742.35,309.8206 757.0625,309.8206 771.7625,309.8206 " fill="none" id="seatalk-instr" style="stroke:#A80036;stroke-width:1.25;"/><!--MD5=[ad6772f1975432038ebb751cfe1f2a7f]
link AP to seatalk--><path codeLine="98" d="M571.575,309.8206 C585.975,309.8206 600.3875,309.8206 614.7875,309.8206 " fill="none" id="AP-seatalk" style="stroke:#A80036;stroke-width:1.25;"/><!--MD5=[b4110a565eb63c468bf419165dcda8e1]
link mon1 to comp1--><path codeLine="100" d="M137.5,58.2456 C137.5,79.4456 137.5,111.1206 137.5,134.0831 " fill="none" id="mon1-comp1" style="stroke:#A80036;stroke-width:1.25;"/><!--MD5=[22dd986fdf6041bcc52ce14bb7c5c6e1]
link mon2 to comp2--><path codeLine="101" d="M995,58.2456 C995,79.4456 995,111.1206 995,134.0831 " fill="none" id="mon2-comp2" style="stroke:#A80036;stroke-width:1.25;"/><!--MD5=[c7a617a653465724799adbd37ef139ab]
link comp1 to IMU1--><path codeLine="103" d="M255.125,164.1956 C269.8,164.1956 284.4875,164.1956 299.175,164.1956 " fill="none" id="comp1-IMU1" style="stroke:#A80036;stroke-width:1.25;"/><!--MD5=[fec72a0fdc4e68e40c8e7645bbf772ed]
link IMU2 to comp2--><path codeLine="104" d="M838.3375,164.1956 C852.8125,164.1956 867.3,164.1956 881.7875,164.1956 " fill="none" id="IMU2-comp2" style="stroke:#A80036;stroke-width:1.25;"/><!--MD5=[e1cd31dbbc3c1ef78dc4eb63c17a1f02]
link usb_hub1 to NavTex--><path codeLine="106" d="M131.6375,309.8206 C146.2,309.8206 160.7625,309.8206 175.3375,309.8206 " fill="none" id="usb_hub1-NavTex" style="stroke:#A80036;stroke-width:1.25;"/><!--MD5=[2ed3416b1855305a92b8ea3457f44374]
link comp1 to usb_hub1--><path codeLine="108" d="M123.8375,194.4081 C111.125,221.3706 92.4375,260.9956 80.75,285.7706 " fill="none" id="comp1-usb_hub1" style="stroke:#A80036;stroke-width:1.25;"/><!--MD5=[efbb60de1c9e942b968646a978810334]
link comp2 to usb_hub2--><path codeLine="109" d="M997.275,194.4081 C999.4,221.3706 1002.5125,260.9956 1004.4625,285.7706 " fill="none" id="comp2-usb_hub2" style="stroke:#A80036;stroke-width:1.25;"/><!--MD5=[c9fa2eae015314ee0cc020143a7434cd]
link usb_hub1 to MUX--><path codeLine="111" d="M115.4625,333.5706 C127.7125,339.1331 141.0875,344.7706 153.75,349.1956 C269.8125,389.7831 406.075,422.6081 503.925,443.7206 " fill="none" id="usb_hub1-MUX" style="stroke:#A80036;stroke-width:1.25;"/><!--MD5=[57d645a400dd28191741d6a5c2afc52a]
link usb_hub2 to USB_to_Serial2--><path codeLine="112" d="M1006.25,333.8206 C1006.25,359.1956 1006.25,400.6831 1006.25,431.1706 " fill="none" id="usb_hub2-USB_to_Serial2" style="stroke:#A80036;stroke-width:1.25;"/><!--MD5=[103aab7c931c5dd285e3a6a34be32f2c]
link router1 to router2--><path codeLine="114" d="M547.15,34.1956 C587.45,34.1956 646.4375,34.1956 686.7125,34.1956 " fill="none" id="router1-router2" style="stroke:#A80036;stroke-width:1.25;"/><text fill="#000000" font-family="sans-serif" font-size="16.25" lengthAdjust="spacing" textLength="93.75" x="570" y="26.0645">WAN to LAN</text><!--MD5=[ea7a86228cc7363637a66ec2773ebdf6]
link router1 to Eth_switch--><path codeLine="115" d="M502.5,58.2456 C502.5,81.4456 502.5,117.2081 502.5,140.3456 " fill="none" id="router1-Eth_switch" style="stroke:#A80036;stroke-width:1.25;"/><!--MD5=[fdc45c2a1df09eb218951de378e6e882]
link comp1 to Eth_switch--><path codeLine="117" d="M187.3,134.0706 C234.775,109.0956 308.425,80.0831 373.125,96.0706 C407.625,104.5956 443.0875,124.1706 468.1375,140.1581 " fill="none" id="comp1-Eth_switch" style="stroke:#A80036;stroke-width:1.25;"/><!--MD5=[511eca652ca16ab340652aeda27f923c]
link Eth_switch to comp2--><path codeLine="118" d="M554.85,140.2831 C620.9125,113.1706 738,75.2706 838.125,96.0706 C873.8875,103.4956 911.5,119.5206 940.925,134.1581 " fill="none" id="Eth_switch-comp2" style="stroke:#A80036;stroke-width:1.25;"/><!--MD5=[5cd05dacc37831cb7aaf6dd044f010b2]
@startuml

rectangle AIS [
 MAIANA AIS Base Kit
]

rectangle AIS_to_NMEA [
 MAIANA AIS USB + RS422 Adapter (NMEA-0183)
]

node MUX [
 MUX
 - - - -
 Shipmodule MiniPlex-3USB
]

node comp1 [
 Computer_1 (Strategic)
]

node comp2 [
 Computer_2 (Tactical)
]

rectangle usb_hub1 [
 USB HUB #1
]

rectangle usb_hub2 [
 USB HUB #2
]


rectangle router1 [
 Router1
]

rectangle router2 [
 Router2
]

rectangle Eth_switch [
 Ethernet Switch
]

rectangle mon1 [
 Monitor1 (Nav Station)
]

rectangle mon2 [
 Monitor2 (Cockpit)
]

rectangle USB_to_Serial2 [
 USB to NMEA-0183 (#2)
 - - - -
 FTDI USB to RS-422
]

cloud seatalk [
 SeaTalk1
]

rectangle instr [
 Depth/Speed
 Wind
]

rectangle AP [
 AutoPilot
]

rectangle IMU1 [
 IMU_1
]

rectangle IMU2 [
 IMU_2
]

rectangle VHF [
 VHF
]

rectangle NavTex [
 NavTex
 - - - -
 Nasa Marine PC-NavTex USB
]

AIS -u- AIS_to_NMEA

MUX - - AIS_to_NMEA : NMEA-0183
MUX -r- USB_to_Serial2 : NMEA-0183
MUX -u- seatalk
MUX - - VHF : NMEA-0183

seatalk -r- instr
seatalk -l- AP

comp1 -u- mon1
comp2 -u- mon2

comp1 -r- IMU1
comp2 -l- IMU2

usb_hub1 -r- NavTex

comp1 -d- usb_hub1
comp2 -d- usb_hub2

usb_hub1 - - MUX
usb_hub2 - - USB_to_Serial2

router1 -r- router2 : WAN to LAN
Eth_switch -u- router1

Eth_switch -l- comp1
Eth_switch -r- comp2

@enduml

PlantUML version 1.2021.00(Sun Jan 10 05:25:05 EST 2021)
(GPL source distribution)
Java Runtime: OpenJDK Runtime Environment
JVM: OpenJDK 64-Bit Server VM
Default Encoding: Cp1252
Language: en
Country: US
--></g></svg>