<?xml version="1.0" encoding="UTF-8" standalone="no"?><svg xmlns="http://www.w3.org/2000/svg" xmlns:xlink="http://www.w3.org/1999/xlink" contentScriptType="application/ecmascript" contentStyleType="text/css" height="862.5px" preserveAspectRatio="none" style="width:1138px;height:862px;" version="1.1" viewBox="0 0 1138 862" width="1138.75px" zoomAndPan="magnify"><defs><filter height="300%" id="f1hwcsw140l89s" width="300%" x="-1" y="-1"><feGaussianBlur result="blurOut" stdDeviation="2.5"/><feColorMatrix in="blurOut" result="blurOut2" type="matrix" values="0 0 0 0 0 0 0 0 0 0 0 0 0 0 0 0 0 0 .4 0"/><feOffset dx="5.0" dy="5.0" in="blurOut2" result="blurOut3"/><feBlend in="SourceGraphic" in2="blurOut3" mode="normal"/></filter></defs><g><!--MD5=[f5b7c8a384d817d6fdb1b8c015c8231d]
entity AIS--><rect fill="#FEFECE" filter="url(#f1hwcsw140l89s)" height="47.0117" style="stroke:#000000;stroke-width:1.875;" width="188.75" x="409.375" y="801.6956"/><text fill="#000000" font-family="sans-serif" font-size="17.5" lengthAdjust="spacing" textLength="163.75" x="421.875" y="832.3621">MAIANA AIS Base Kit</text><!--MD5=[2ba76110abbacead416bf6da6ca00009]
entity AIS_to_NMEA--><rect fill="#FEFECE" filter="url(#f1hwcsw140l89s)" height="47.0117" style="stroke:#000000;stroke-width:1.875;" width="410" x="298.75" y="656.6956"/><text fill="#000000" font-family="sans-serif" font-size="17.5" lengthAdjust="spacing" textLength="385" x="311.25" y="687.3621">MAIANA AIS USB + RS422 Adapter (NMEA-0183)</text><!--MD5=[55d3b0a90c5f84155f5367fad5496924]
entity MUX--><polygon fill="#FEFECE" filter="url(#f1hwcsw140l89s)" points="513.125,480.4456,525.625,467.9456,774.375,467.9456,774.375,546.969,761.875,559.469,513.125,559.469,513.125,480.4456" style="stroke:#000000;stroke-width:1.875;"/><line style="stroke:#000000;stroke-width:1.875;" x1="761.875" x2="774.375" y1="480.4456" y2="467.9456"/><line style="stroke:#000000;stroke-width:1.875;" x1="513.125" x2="761.875" y1="480.4456" y2="480.4456"/><line style="stroke:#000000;stroke-width:1.875;" x1="761.875" x2="761.875" y1="480.4456" y2="559.469"/><text fill="#000000" font-family="sans-serif" font-size="17.5" lengthAdjust="spacing" textLength="35" x="531.875" y="511.1121">MUX</text><line style="stroke:#000000;stroke-width:1.25;" x1="513.125" x2="761.875" y1="514.9573" y2="514.9573"/><line style="stroke:#000000;stroke-width:1.25;" x1="761.875" x2="774.375" y1="514.9573" y2="502.4573"/><text fill="#000000" font-family="sans-serif" font-size="17.5" lengthAdjust="spacing" textLength="211.25" x="531.875" y="538.1238">Shipmodule MiniPlex-3USB</text><!--MD5=[9f289ca539b650134df838be30977bdf]
entity comp1--><polygon fill="#FEFECE" filter="url(#f1hwcsw140l89s)" points="20,167.9456,32.5,155.4456,255,155.4456,255,202.4573,242.5,214.9573,20,214.9573,20,167.9456" style="stroke:#000000;stroke-width:1.875;"/><line style="stroke:#000000;stroke-width:1.875;" x1="242.5" x2="255" y1="167.9456" y2="155.4456"/><line style="stroke:#000000;stroke-width:1.875;" x1="20" x2="242.5" y1="167.9456" y2="167.9456"/><line style="stroke:#000000;stroke-width:1.875;" x1="242.5" x2="242.5" y1="167.9456" y2="214.9573"/><text fill="#000000" font-family="sans-serif" font-size="17.5" lengthAdjust="spacing" textLength="185" x="38.75" y="198.6121">Computer_1 (Strategic)</text><!--MD5=[9ce2ef9ab72501d0b0a005ad96e63d6d]
entity comp2--><polygon fill="#FEFECE" filter="url(#f1hwcsw140l89s)" points="891.875,167.9456,904.375,155.4456,1118.125,155.4456,1118.125,202.4573,1105.625,214.9573,891.875,214.9573,891.875,167.9456" style="stroke:#000000;stroke-width:1.875;"/><line style="stroke:#000000;stroke-width:1.875;" x1="1105.625" x2="1118.125" y1="167.9456" y2="155.4456"/><line style="stroke:#000000;stroke-width:1.875;" x1="891.875" x2="1105.625" y1="167.9456" y2="167.9456"/><line style="stroke:#000000;stroke-width:1.875;" x1="1105.625" x2="1105.625" y1="167.9456" y2="214.9573"/><text fill="#000000" font-family="sans-serif" font-size="17.5" lengthAdjust="spacing" textLength="176.25" x="910.625" y="198.6121">Computer_2 (Tactical)</text><!--MD5=[cacf98b309603177cfba91467aeead69]
entity usb_hub1--><rect fill="#FEFECE" filter="url(#f1hwcsw140l89s)" height="47.0117" style="stroke:#000000;stroke-width:1.875;" width="122.5" x="17.5" y="307.3206"/><text fill="#000000" font-family="sans-serif" font-size="17.5" lengthAdjust="spacing" textLength="97.5" x="30" y="337.9871">USB HUB #1</text><!--MD5=[574e9358fccd19058874a9199879e1ab]
entity usb_hub2--><rect fill="#FEFECE" filter="url(#f1hwcsw140l89s)" height="47.0117" style="stroke:#000000;stroke-width:1.875;" width="122.5" x="953.75" y="307.3206"/><text fill="#000000" font-family="sans-serif" font-size="17.5" lengthAdjust="spacing" textLength="97.5" x="966.25" y="337.9871">USB HUB #2</text><!--MD5=[7cf10fd80f7580b2c5e15283e9ebc6f7]
entity router1--><rect fill="#FEFECE" filter="url(#f1hwcsw140l89s)" height="47.0117" style="stroke:#000000;stroke-width:1.875;" width="88.75" x="479.375" y="10.4456"/><text fill="#000000" font-family="sans-serif" font-size="17.5" lengthAdjust="spacing" textLength="63.75" x="491.875" y="41.1121">Router1</text><!--MD5=[655f75fa08bbe95bdc76a3d8a1755d44]
entity router2--><rect fill="#FEFECE" filter="url(#f1hwcsw140l89s)" height="47.0117" style="stroke:#000000;stroke-width:1.875;" width="88.75" x="708.125" y="10.4456"/><text fill="#000000" font-family="sans-serif" font-size="17.5" lengthAdjust="spacing" textLength="63.75" x="720.625" y="41.1121">Router2</text><!--MD5=[0f7fb8c0eda049cc708733aa84a0d084]
entity Eth_switch--><rect fill="#FEFECE" filter="url(#f1hwcsw140l89s)" height="47.0117" style="stroke:#000000;stroke-width:1.875;" width="147.5" x="450" y="161.6956"/><text fill="#000000" font-family="sans-serif" font-size="17.5" lengthAdjust="spacing" textLength="122.5" x="462.5" y="192.3621">Ethernet Switch</text><!--MD5=[ebfdd7cc5276e8a4319d08aade10d1ac]
entity mon1--><rect fill="#FEFECE" filter="url(#f1hwcsw140l89s)" height="47.0117" style="stroke:#000000;stroke-width:1.875;" width="201.25" x="36.875" y="10.4456"/><text fill="#000000" font-family="sans-serif" font-size="17.5" lengthAdjust="spacing" textLength="176.25" x="49.375" y="41.1121">Monitor1 (Nav Station)</text><!--MD5=[cfc1d45457fb3e680c3a8d0da9d6b7b5]
entity mon2--><rect fill="#FEFECE" filter="url(#f1hwcsw140l89s)" height="47.0117" style="stroke:#000000;stroke-width:1.875;" width="170" x="920" y="10.4456"/><text fill="#000000" font-family="sans-serif" font-size="17.5" lengthAdjust="spacing" textLength="145" x="932.5" y="41.1121">Monitor2 (Cockpit)</text><!--MD5=[bba3a1206c5767eaf43299e77b413f4d]
entity USB_to_Serial2--><rect fill="#FEFECE" filter="url(#f1hwcsw140l89s)" height="79.0234" style="stroke:#000000;stroke-width:1.875;" width="215" x="907.5" y="474.1956"/><text fill="#000000" font-family="sans-serif" font-size="17.5" lengthAdjust="spacing" textLength="190" x="920" y="504.8621">USB to NMEA-0183 (#2)</text><line style="stroke:#000000;stroke-width:1.25;" x1="908.75" x2="1121.25" y1="508.7073" y2="508.7073"/><text fill="#000000" font-family="sans-serif" font-size="17.5" lengthAdjust="spacing" textLength="162.5" x="920" y="531.8738">FTDI USB to RS-422</text><!--MD5=[8f44a33d38c1e88eaeaaea93044635f5]
entity seatalk--><path d="M635.5553,311.565 C640.5656,303.4455 645.4956,303.0729 651.1458,310.941 C653.8013,303.2475 660.2988,302.4104 665.9707,307.4211 C668.6378,300.2197 675.2254,298.7632 680.2355,304.9188 C686.4166,297.3569 691.3377,300.0608 695.4832,307.0517 C703.1271,300.0514 708.224,302.1143 712.3483,310.8289 C717.2713,304.5292 723.2533,304.9664 727.3336,311.7911 C738.9256,316.9823 740.5544,323.5946 732.4137,333.4204 C741.1034,343.1819 737.8986,349.0282 726.891,353.3242 C722.822,361.5074 716.3637,360.2299 711.9563,353.667 C706.8031,362.11 701.4109,361.6846 695.7935,354.1363 C691.2934,362.3768 685.0928,362.5351 680.4263,354.2914 C674.9129,358.9907 670.8475,358.2588 667.2375,352.0004 C662.0674,360.7456 654.6496,359.4415 650.3569,351.1319 C647.1168,357.4134 640.4301,357.6999 636.299,352.1945 C624.7574,348.5554 624.7679,338.6774 632.9752,331.8169 C625.2487,325.231 624.1732,315.7165 635.5553,311.565 " fill="#FEFECE" filter="url(#f1hwcsw140l89s)" style="stroke:#000000;stroke-width:1.875;"/><text fill="#000000" font-family="sans-serif" font-size="17.5" lengthAdjust="spacing" textLength="75" x="642.5" y="337.9871">SeaTalk1</text><!--MD5=[d747d3941fab0b1c871f78dd7a11e276]
entity instr--><rect fill="#FEFECE" filter="url(#f1hwcsw140l89s)" height="69.0234" style="stroke:#000000;stroke-width:1.875;" width="128.75" x="780.625" y="296.6956"/><text fill="#000000" font-family="sans-serif" font-size="17.5" lengthAdjust="spacing" textLength="103.75" x="793.125" y="327.3621">Depth/Speed</text><text fill="#000000" font-family="sans-serif" font-size="17.5" lengthAdjust="spacing" textLength="40" x="793.125" y="349.3738">Wind</text><!--MD5=[31e3ec59327e273962ce661ad70afaa5]
entity AP--><rect fill="#FEFECE" filter="url(#f1hwcsw140l89s)" height="47.0117" style="stroke:#000000;stroke-width:1.875;" width="95" x="485" y="307.3206"/><text fill="#000000" font-family="sans-serif" font-size="17.5" lengthAdjust="spacing" textLength="70" x="497.5" y="337.9871">AutoPilot</text><!--MD5=[2f5ce3e1a27480661ac47cd8fd5dd32c]
entity IMU1--><rect fill="#FEFECE" filter="url(#f1hwcsw140l89s)" height="47.0117" style="stroke:#000000;stroke-width:1.875;" width="73.75" x="321.875" y="161.6956"/><text fill="#000000" font-family="sans-serif" font-size="17.5" lengthAdjust="spacing" textLength="48.75" x="334.375" y="192.3621">IMU_1</text><!--MD5=[a645e4007e439bfe7661e76e14217d4a]
entity IMU2--><rect fill="#FEFECE" filter="url(#f1hwcsw140l89s)" height="47.0117" style="stroke:#000000;stroke-width:1.875;" width="73.75" x="750.625" y="161.6956"/><text fill="#000000" font-family="sans-serif" font-size="17.5" lengthAdjust="spacing" textLength="48.75" x="763.125" y="192.3621">IMU_2</text><!--MD5=[7836a0416f99aa579c3b743659b03905]
entity VHF--><rect fill="#FEFECE" filter="url(#f1hwcsw140l89s)" height="47.0117" style="stroke:#000000;stroke-width:1.875;" width="58.75" x="753.125" y="656.6956"/><text fill="#000000" font-family="sans-serif" font-size="17.5" lengthAdjust="spacing" textLength="33.75" x="765.625" y="687.3621">VHF</text><!--MD5=[b6813d4f5a6bea06e1e9e6d314623338]
entity NavTex--><rect fill="#FEFECE" filter="url(#f1hwcsw140l89s)" height="79.0234" style="stroke:#000000;stroke-width:1.875;" width="256.25" x="184.375" y="291.6956"/><text fill="#000000" font-family="sans-serif" font-size="17.5" lengthAdjust="spacing" textLength="58.75" x="196.875" y="322.3621">NavTex</text><line style="stroke:#000000;stroke-width:1.25;" x1="185.625" x2="439.375" y1="326.2073" y2="326.2073"/><text fill="#000000" font-family="sans-serif" font-size="17.5" lengthAdjust="spacing" textLength="231.25" x="196.875" y="349.3738">Nasa Marine PC-NavTex USB</text><!--MD5=[b030dae54ad88894ab82981e89da95c9]
link AIS_to_NMEA to AIS--><path codeLine="90" d="M503.75,704.2706 C503.75,730.7956 503.75,774.5706 503.75,801.2456 " fill="none" id="AIS_to_NMEA-AIS" style="stroke:#A80036;stroke-width:1.25;"/><text fill="#000000" font-family="sans-serif" font-size="16.25" lengthAdjust="spacing" textLength="33.75" x="505" y="759.8145">Cat6</text><!--MD5=[4bed90069e44cf933319571d7c66e17a]
link MUX to AIS_to_NMEA--><path codeLine="92" d="M605.8625,559.3081 C579.1375,590.6831 544.45,631.4206 523.15,656.4081 " fill="none" id="MUX-AIS_to_NMEA" style="stroke:#A80036;stroke-width:1.25;"/><text fill="#000000" font-family="sans-serif" font-size="16.25" lengthAdjust="spacing" textLength="87.5" x="575" y="614.8145">NMEA-0183</text><!--MD5=[ee34596fa281b874ddc5cc5e358ebf64]
link MUX to USB_to_Serial2--><path codeLine="93" d="M774.6375,513.5706 C818.0625,513.5706 865.875,513.5706 907.3375,513.5706 " fill="none" id="MUX-USB_to_Serial2" style="stroke:#A80036;stroke-width:1.25;"/><text fill="#000000" font-family="sans-serif" font-size="16.25" lengthAdjust="spacing" textLength="87.5" x="797.1875" y="505.4395">NMEA-0183</text><!--MD5=[1e991018c604224e21bee33be46e950a]
link seatalk to MUX--><path codeLine="94" d="M674.175,361.2456 C668.3875,389.9581 659.4375,434.3956 652.75,467.6456 " fill="none" id="seatalk-MUX" style="stroke:#A80036;stroke-width:1.25;"/><!--MD5=[d3503e9009a0bb04abd04d1f7c51e905]
link MUX to VHF--><path codeLine="95" d="M681.3,559.3081 C707.7875,590.6831 742.1625,631.4206 763.2625,656.4081 " fill="none" id="MUX-VHF" style="stroke:#A80036;stroke-width:1.25;"/><text fill="#000000" font-family="sans-serif" font-size="16.25" lengthAdjust="spacing" textLength="87.5" x="730" y="614.8145">NMEA-0183</text><!--MD5=[9f54148a75ad9c595cf3695709df9036]
link seatalk to instr--><path codeLine="97" d="M736.4,331.0706 C751.1,331.0706 765.8125,331.0706 780.5125,331.0706 " fill="none" id="seatalk-instr" style="stroke:#A80036;stroke-width:1.25;"/><!--MD5=[ad6772f1975432038ebb751cfe1f2a7f]
link AP to seatalk--><path codeLine="98" d="M580.325,331.0706 C594.725,331.0706 609.1375,331.0706 623.5375,331.0706 " fill="none" id="AP-seatalk" style="stroke:#A80036;stroke-width:1.25;"/><!--MD5=[b4110a565eb63c468bf419165dcda8e1]
link mon1 to comp1--><path codeLine="100" d="M137.5,58.0331 C137.5,84.0456 137.5,126.8206 137.5,155.2456 " fill="none" id="mon1-comp1" style="stroke:#A80036;stroke-width:1.25;"/><text fill="#000000" font-family="sans-serif" font-size="16.25" lengthAdjust="spacing" textLength="78.75" x="138.75" y="113.5645">HDMI/USB</text><!--MD5=[22dd986fdf6041bcc52ce14bb7c5c6e1]
link mon2 to comp2--><path codeLine="101" d="M1005,58.0331 C1005,84.0456 1005,126.8206 1005,155.2456 " fill="none" id="mon2-comp2" style="stroke:#A80036;stroke-width:1.25;"/><text fill="#000000" font-family="sans-serif" font-size="16.25" lengthAdjust="spacing" textLength="78.75" x="1006.25" y="113.5645">HDMI/USB</text><!--MD5=[c7a617a653465724799adbd37ef139ab]
link comp1 to IMU1--><path codeLine="103" d="M255.25,185.4456 C279.4,185.4456 303.0875,185.4456 321.7,185.4456 " fill="none" id="comp1-IMU1" style="stroke:#A80036;stroke-width:1.25;"/><text fill="#000000" font-family="sans-serif" font-size="16.25" lengthAdjust="spacing" textLength="21.25" x="277.8125" y="177.3145">i2c</text><!--MD5=[fec72a0fdc4e68e40c8e7645bbf772ed]
link IMU2 to comp2--><path codeLine="104" d="M824.4,185.4456 C843.1875,185.4456 867.15,185.4456 891.425,185.4456 " fill="none" id="IMU2-comp2" style="stroke:#A80036;stroke-width:1.25;"/><text fill="#000000" font-family="sans-serif" font-size="16.25" lengthAdjust="spacing" textLength="21.25" x="847.5" y="177.3145">i2c</text><!--MD5=[e1cd31dbbc3c1ef78dc4eb63c17a1f02]
link usb_hub1 to NavTex--><path codeLine="106" d="M140.3875,331.0706 C154.95,331.0706 169.5125,331.0706 184.0875,331.0706 " fill="none" id="usb_hub1-NavTex" style="stroke:#A80036;stroke-width:1.25;"/><!--MD5=[2ed3416b1855305a92b8ea3457f44374]
link comp1 to usb_hub1--><path codeLine="108" d="M125.6125,215.6581 C114.55,242.6206 98.275,282.2456 88.1125,307.0206 " fill="none" id="comp1-usb_hub1" style="stroke:#A80036;stroke-width:1.25;"/><!--MD5=[efbb60de1c9e942b968646a978810334]
link comp2 to usb_hub2--><path codeLine="109" d="M1007.025,215.6581 C1008.9125,242.6206 1011.675,282.2456 1013.4125,307.0206 " fill="none" id="comp2-usb_hub2" style="stroke:#A80036;stroke-width:1.25;"/><!--MD5=[c9fa2eae015314ee0cc020143a7434cd]
link usb_hub1 to MUX--><path codeLine="111" d="M125.2125,354.8706 C137.225,360.3081 150.225,365.8706 162.5,370.4456 C279,413.8956 415.2125,452.9956 512.9375,479.0956 " fill="none" id="usb_hub1-MUX" style="stroke:#A80036;stroke-width:1.25;"/><text fill="#000000" font-family="sans-serif" font-size="16.25" lengthAdjust="spacing" textLength="33.75" x="332.5" y="426.0645">USB</text><!--MD5=[57d645a400dd28191741d6a5c2afc52a]
link usb_hub2 to USB_to_Serial2--><path codeLine="112" d="M1015,355.1206 C1015,385.0081 1015,437.8831 1015,473.9831 " fill="none" id="usb_hub2-USB_to_Serial2" style="stroke:#A80036;stroke-width:1.25;"/><!--MD5=[103aab7c931c5dd285e3a6a34be32f2c]
link router1 to router2--><path codeLine="114" d="M568.4,34.1956 C608.7,34.1956 667.6875,34.1956 707.9625,34.1956 " fill="none" id="router1-router2" style="stroke:#A80036;stroke-width:1.25;"/><text fill="#000000" font-family="sans-serif" font-size="16.25" lengthAdjust="spacing" textLength="93.75" x="591.25" y="26.0645">WAN to LAN</text><!--MD5=[ea7a86228cc7363637a66ec2773ebdf6]
link router1 to Eth_switch--><path codeLine="115" d="M523.75,58.0331 C523.75,85.9956 523.75,133.3331 523.75,161.3956 " fill="none" id="router1-Eth_switch" style="stroke:#A80036;stroke-width:1.25;"/><!--MD5=[fdc45c2a1df09eb218951de378e6e882]
link comp1 to Eth_switch--><path codeLine="117" d="M183.025,155.2456 C234.4625,124.9331 320.7875,85.5331 395.625,106.6956 C433.3125,117.3456 470.825,142.5581 495.425,161.6081 " fill="none" id="comp1-Eth_switch" style="stroke:#A80036;stroke-width:1.25;"/><!--MD5=[511eca652ca16ab340652aeda27f923c]
link Eth_switch to comp2--><path codeLine="118" d="M566.2375,161.5081 C624.1875,131.8081 731.4125,87.3081 824.375,106.6956 C869.4125,116.0831 916.9875,137.3456 952,155.4081 " fill="none" id="Eth_switch-comp2" style="stroke:#A80036;stroke-width:1.25;"/><!--MD5=[6b49e45010c62c483fd27185e87144f2]
@startuml

rectangle AIS [
 MAIANA AIS Base Kit
]

rectangle AIS_to_NMEA [
 MAIANA AIS USB + RS422 Adapter (NMEA-0183)
]

node MUX [
 MUX
 - - - -
 Shipmodule MiniPlex-3USB
]

node comp1 [
 Computer_1 (Strategic)
]

node comp2 [
 Computer_2 (Tactical)
]

rectangle usb_hub1 [
 USB HUB #1
]

rectangle usb_hub2 [
 USB HUB #2
]


rectangle router1 [
 Router1
]

rectangle router2 [
 Router2
]

rectangle Eth_switch [
 Ethernet Switch
]

rectangle mon1 [
 Monitor1 (Nav Station)
]

rectangle mon2 [
 Monitor2 (Cockpit)
]

rectangle USB_to_Serial2 [
 USB to NMEA-0183 (#2)
 - - - -
 FTDI USB to RS-422
]

cloud seatalk [
 SeaTalk1
]

rectangle instr [
 Depth/Speed
 Wind
]

rectangle AP [
 AutoPilot
]

rectangle IMU1 [
 IMU_1
]

rectangle IMU2 [
 IMU_2
]

rectangle VHF [
 VHF
]

rectangle NavTex [
 NavTex
 - - - -
 Nasa Marine PC-NavTex USB
]

AIS -u- AIS_to_NMEA : Cat6

MUX - - AIS_to_NMEA : NMEA-0183
MUX -r- USB_to_Serial2 : NMEA-0183
MUX -u- seatalk
MUX - - VHF : NMEA-0183

seatalk -r- instr
seatalk -l- AP

comp1 -u- mon1 : HDMI/USB
comp2 -u- mon2 : HDMI/USB

comp1 -r- IMU1 : i2c
comp2 -l- IMU2 : i2c

usb_hub1 -r- NavTex

comp1 -d- usb_hub1
comp2 -d- usb_hub2

usb_hub1 - - MUX : USB
usb_hub2 - - USB_to_Serial2

router1 -r- router2 : WAN to LAN
Eth_switch -u- router1

Eth_switch -l- comp1
Eth_switch -r- comp2

@enduml

PlantUML version 1.2021.00(Sun Jan 10 05:25:05 EST 2021)
(GPL source distribution)
Java Runtime: OpenJDK Runtime Environment
JVM: OpenJDK 64-Bit Server VM
Default Encoding: Cp1252
Language: en
Country: US
--></g></svg>