<?xml version="1.0" encoding="UTF-8" standalone="no"?><svg xmlns="http://www.w3.org/2000/svg" xmlns:xlink="http://www.w3.org/1999/xlink" contentScriptType="application/ecmascript" contentStyleType="text/css" height="862.5px" preserveAspectRatio="none" style="width:1128px;height:862px;" version="1.1" viewBox="0 0 1128 862" width="1128.75px" zoomAndPan="magnify"><defs><filter height="300%" id="f1m9s6lomgugp4" width="300%" x="-1" y="-1"><feGaussianBlur result="blurOut" stdDeviation="2.5"/><feColorMatrix in="blurOut" result="blurOut2" type="matrix" values="0 0 0 0 0 0 0 0 0 0 0 0 0 0 0 0 0 0 .4 0"/><feOffset dx="5.0" dy="5.0" in="blurOut2" result="blurOut3"/><feBlend in="SourceGraphic" in2="blurOut3" mode="normal"/></filter></defs><g><!--MD5=[f5b7c8a384d817d6fdb1b8c015c8231d]
entity AIS--><rect fill="#FEFECE" filter="url(#f1m9s6lomgugp4)" height="47.0117" style="stroke:#000000;stroke-width:1.875;" width="188.75" x="400.625" y="801.6956"/><text fill="#000000" font-family="sans-serif" font-size="17.5" lengthAdjust="spacing" textLength="163.75" x="413.125" y="832.3621">MAIANA AIS Base Kit</text><!--MD5=[2ba76110abbacead416bf6da6ca00009]
entity AIS_to_NMEA--><rect fill="#FEFECE" filter="url(#f1m9s6lomgugp4)" height="47.0117" style="stroke:#000000;stroke-width:1.875;" width="410" x="290" y="656.6956"/><text fill="#000000" font-family="sans-serif" font-size="17.5" lengthAdjust="spacing" textLength="385" x="302.5" y="687.3621">MAIANA AIS USB + RS422 Adapter (NMEA-0183)</text><!--MD5=[55d3b0a90c5f84155f5367fad5496924]
entity MUX--><polygon fill="#FEFECE" filter="url(#f1m9s6lomgugp4)" points="504.375,480.4456,516.875,467.9456,765.625,467.9456,765.625,546.969,753.125,559.469,504.375,559.469,504.375,480.4456" style="stroke:#000000;stroke-width:1.875;"/><line style="stroke:#000000;stroke-width:1.875;" x1="753.125" x2="765.625" y1="480.4456" y2="467.9456"/><line style="stroke:#000000;stroke-width:1.875;" x1="504.375" x2="753.125" y1="480.4456" y2="480.4456"/><line style="stroke:#000000;stroke-width:1.875;" x1="753.125" x2="753.125" y1="480.4456" y2="559.469"/><text fill="#000000" font-family="sans-serif" font-size="17.5" lengthAdjust="spacing" textLength="35" x="523.125" y="511.1121">MUX</text><line style="stroke:#000000;stroke-width:1.25;" x1="504.375" x2="753.125" y1="514.9573" y2="514.9573"/><line style="stroke:#000000;stroke-width:1.25;" x1="753.125" x2="765.625" y1="514.9573" y2="502.4573"/><text fill="#000000" font-family="sans-serif" font-size="17.5" lengthAdjust="spacing" textLength="211.25" x="523.125" y="538.1238">Shipmodule MiniPlex-3USB</text><!--MD5=[9f289ca539b650134df838be30977bdf]
entity comp1--><polygon fill="#FEFECE" filter="url(#f1m9s6lomgugp4)" points="20,167.9456,32.5,155.4456,255,155.4456,255,202.4573,242.5,214.9573,20,214.9573,20,167.9456" style="stroke:#000000;stroke-width:1.875;"/><line style="stroke:#000000;stroke-width:1.875;" x1="242.5" x2="255" y1="167.9456" y2="155.4456"/><line style="stroke:#000000;stroke-width:1.875;" x1="20" x2="242.5" y1="167.9456" y2="167.9456"/><line style="stroke:#000000;stroke-width:1.875;" x1="242.5" x2="242.5" y1="167.9456" y2="214.9573"/><text fill="#000000" font-family="sans-serif" font-size="17.5" lengthAdjust="spacing" textLength="185" x="38.75" y="198.6121">Computer_1 (Strategic)</text><!--MD5=[9ce2ef9ab72501d0b0a005ad96e63d6d]
entity comp2--><polygon fill="#FEFECE" filter="url(#f1m9s6lomgugp4)" points="881.875,167.9456,894.375,155.4456,1108.125,155.4456,1108.125,202.4573,1095.625,214.9573,881.875,214.9573,881.875,167.9456" style="stroke:#000000;stroke-width:1.875;"/><line style="stroke:#000000;stroke-width:1.875;" x1="1095.625" x2="1108.125" y1="167.9456" y2="155.4456"/><line style="stroke:#000000;stroke-width:1.875;" x1="881.875" x2="1095.625" y1="167.9456" y2="167.9456"/><line style="stroke:#000000;stroke-width:1.875;" x1="1095.625" x2="1095.625" y1="167.9456" y2="214.9573"/><text fill="#000000" font-family="sans-serif" font-size="17.5" lengthAdjust="spacing" textLength="176.25" x="900.625" y="198.6121">Computer_2 (Tactical)</text><!--MD5=[cacf98b309603177cfba91467aeead69]
entity usb_hub1--><rect fill="#FEFECE" filter="url(#f1m9s6lomgugp4)" height="47.0117" style="stroke:#000000;stroke-width:1.875;" width="122.5" x="8.75" y="307.3206"/><text fill="#000000" font-family="sans-serif" font-size="17.5" lengthAdjust="spacing" textLength="97.5" x="21.25" y="337.9871">USB HUB #1</text><!--MD5=[574e9358fccd19058874a9199879e1ab]
entity usb_hub2--><rect fill="#FEFECE" filter="url(#f1m9s6lomgugp4)" height="47.0117" style="stroke:#000000;stroke-width:1.875;" width="122.5" x="945" y="307.3206"/><text fill="#000000" font-family="sans-serif" font-size="17.5" lengthAdjust="spacing" textLength="97.5" x="957.5" y="337.9871">USB HUB #2</text><!--MD5=[7cf10fd80f7580b2c5e15283e9ebc6f7]
entity router1--><rect fill="#FEFECE" filter="url(#f1m9s6lomgugp4)" height="47.0117" style="stroke:#000000;stroke-width:1.875;" width="88.75" x="458.125" y="10.4456"/><text fill="#000000" font-family="sans-serif" font-size="17.5" lengthAdjust="spacing" textLength="63.75" x="470.625" y="41.1121">Router1</text><!--MD5=[655f75fa08bbe95bdc76a3d8a1755d44]
entity router2--><rect fill="#FEFECE" filter="url(#f1m9s6lomgugp4)" height="47.0117" style="stroke:#000000;stroke-width:1.875;" width="88.75" x="686.875" y="10.4456"/><text fill="#000000" font-family="sans-serif" font-size="17.5" lengthAdjust="spacing" textLength="63.75" x="699.375" y="41.1121">Router2</text><!--MD5=[0f7fb8c0eda049cc708733aa84a0d084]
entity Eth_switch--><rect fill="#FEFECE" filter="url(#f1m9s6lomgugp4)" height="47.0117" style="stroke:#000000;stroke-width:1.875;" width="147.5" x="428.75" y="161.6956"/><text fill="#000000" font-family="sans-serif" font-size="17.5" lengthAdjust="spacing" textLength="122.5" x="441.25" y="192.3621">Ethernet Switch</text><!--MD5=[ebfdd7cc5276e8a4319d08aade10d1ac]
entity mon1--><rect fill="#FEFECE" filter="url(#f1m9s6lomgugp4)" height="47.0117" style="stroke:#000000;stroke-width:1.875;" width="201.25" x="36.875" y="10.4456"/><text fill="#000000" font-family="sans-serif" font-size="17.5" lengthAdjust="spacing" textLength="176.25" x="49.375" y="41.1121">Monitor1 (Nav Station)</text><!--MD5=[cfc1d45457fb3e680c3a8d0da9d6b7b5]
entity mon2--><rect fill="#FEFECE" filter="url(#f1m9s6lomgugp4)" height="47.0117" style="stroke:#000000;stroke-width:1.875;" width="170" x="910" y="10.4456"/><text fill="#000000" font-family="sans-serif" font-size="17.5" lengthAdjust="spacing" textLength="145" x="922.5" y="41.1121">Monitor2 (Cockpit)</text><!--MD5=[bba3a1206c5767eaf43299e77b413f4d]
entity USB_to_Serial2--><rect fill="#FEFECE" filter="url(#f1m9s6lomgugp4)" height="79.0234" style="stroke:#000000;stroke-width:1.875;" width="215" x="898.75" y="474.1956"/><text fill="#000000" font-family="sans-serif" font-size="17.5" lengthAdjust="spacing" textLength="190" x="911.25" y="504.8621">USB to NMEA-0183 (#2)</text><line style="stroke:#000000;stroke-width:1.25;" x1="900" x2="1112.5" y1="508.7073" y2="508.7073"/><text fill="#000000" font-family="sans-serif" font-size="17.5" lengthAdjust="spacing" textLength="162.5" x="911.25" y="531.8738">FTDI USB to RS-422</text><!--MD5=[8f44a33d38c1e88eaeaaea93044635f5]
entity seatalk--><path d="M626.8053,311.565 C631.8156,303.4455 636.7456,303.0729 642.3958,310.941 C645.0513,303.2475 651.5488,302.4104 657.2207,307.4211 C659.8878,300.2197 666.4754,298.7632 671.4855,304.9188 C677.6666,297.3569 682.5877,300.0608 686.7332,307.0517 C694.3771,300.0514 699.474,302.1143 703.5983,310.8289 C708.5213,304.5292 714.5033,304.9664 718.5836,311.7911 C730.1756,316.9823 731.8044,323.5946 723.6637,333.4204 C732.3534,343.1819 729.1486,349.0282 718.141,353.3242 C714.072,361.5074 707.6137,360.2299 703.2063,353.667 C698.0531,362.11 692.6609,361.6846 687.0435,354.1363 C682.5434,362.3768 676.3428,362.5351 671.6763,354.2914 C666.1629,358.9907 662.0975,358.2588 658.4875,352.0004 C653.3174,360.7456 645.8996,359.4415 641.6069,351.1319 C638.3668,357.4134 631.6801,357.6999 627.549,352.1945 C616.0074,348.5554 616.0179,338.6774 624.2252,331.8169 C616.4987,325.231 615.4232,315.7165 626.8053,311.565 " fill="#FEFECE" filter="url(#f1m9s6lomgugp4)" style="stroke:#000000;stroke-width:1.875;"/><text fill="#000000" font-family="sans-serif" font-size="17.5" lengthAdjust="spacing" textLength="75" x="633.75" y="337.9871">SeaTalk1</text><!--MD5=[d747d3941fab0b1c871f78dd7a11e276]
entity instr--><rect fill="#FEFECE" filter="url(#f1m9s6lomgugp4)" height="69.0234" style="stroke:#000000;stroke-width:1.875;" width="128.75" x="771.875" y="296.6956"/><text fill="#000000" font-family="sans-serif" font-size="17.5" lengthAdjust="spacing" textLength="103.75" x="784.375" y="327.3621">Depth/Speed</text><text fill="#000000" font-family="sans-serif" font-size="17.5" lengthAdjust="spacing" textLength="40" x="784.375" y="349.3738">Wind</text><!--MD5=[31e3ec59327e273962ce661ad70afaa5]
entity AP--><rect fill="#FEFECE" filter="url(#f1m9s6lomgugp4)" height="47.0117" style="stroke:#000000;stroke-width:1.875;" width="95" x="476.25" y="307.3206"/><text fill="#000000" font-family="sans-serif" font-size="17.5" lengthAdjust="spacing" textLength="70" x="488.75" y="337.9871">AutoPilot</text><!--MD5=[2f5ce3e1a27480661ac47cd8fd5dd32c]
entity IMU1--><rect fill="#FEFECE" filter="url(#f1m9s6lomgugp4)" height="47.0117" style="stroke:#000000;stroke-width:1.875;" width="73.75" x="299.375" y="161.6956"/><text fill="#000000" font-family="sans-serif" font-size="17.5" lengthAdjust="spacing" textLength="48.75" x="311.875" y="192.3621">IMU_1</text><!--MD5=[a645e4007e439bfe7661e76e14217d4a]
entity IMU2--><rect fill="#FEFECE" filter="url(#f1m9s6lomgugp4)" height="47.0117" style="stroke:#000000;stroke-width:1.875;" width="73.75" x="764.375" y="161.6956"/><text fill="#000000" font-family="sans-serif" font-size="17.5" lengthAdjust="spacing" textLength="48.75" x="776.875" y="192.3621">IMU_2</text><!--MD5=[7836a0416f99aa579c3b743659b03905]
entity VHF--><rect fill="#FEFECE" filter="url(#f1m9s6lomgugp4)" height="47.0117" style="stroke:#000000;stroke-width:1.875;" width="58.75" x="744.375" y="656.6956"/><text fill="#000000" font-family="sans-serif" font-size="17.5" lengthAdjust="spacing" textLength="33.75" x="756.875" y="687.3621">VHF</text><!--MD5=[b6813d4f5a6bea06e1e9e6d314623338]
entity NavTex--><rect fill="#FEFECE" filter="url(#f1m9s6lomgugp4)" height="79.0234" style="stroke:#000000;stroke-width:1.875;" width="256.25" x="175.625" y="291.6956"/><text fill="#000000" font-family="sans-serif" font-size="17.5" lengthAdjust="spacing" textLength="58.75" x="188.125" y="322.3621">NavTex</text><line style="stroke:#000000;stroke-width:1.25;" x1="176.875" x2="430.625" y1="326.2073" y2="326.2073"/><text fill="#000000" font-family="sans-serif" font-size="17.5" lengthAdjust="spacing" textLength="231.25" x="188.125" y="349.3738">Nasa Marine PC-NavTex USB</text><!--MD5=[b030dae54ad88894ab82981e89da95c9]
link AIS_to_NMEA to AIS--><path codeLine="90" d="M495,704.2706 C495,730.7956 495,774.5706 495,801.2456 " fill="none" id="AIS_to_NMEA-AIS" style="stroke:#A80036;stroke-width:1.25;"/><text fill="#000000" font-family="sans-serif" font-size="16.25" lengthAdjust="spacing" textLength="33.75" x="496.25" y="759.8145">Cat6</text><!--MD5=[4bed90069e44cf933319571d7c66e17a]
link MUX to AIS_to_NMEA--><path codeLine="92" d="M597.1125,559.3081 C570.3875,590.6831 535.7,631.4206 514.4,656.4081 " fill="none" id="MUX-AIS_to_NMEA" style="stroke:#A80036;stroke-width:1.25;"/><text fill="#000000" font-family="sans-serif" font-size="16.25" lengthAdjust="spacing" textLength="87.5" x="566.25" y="614.8145">NMEA-0183</text><!--MD5=[ee34596fa281b874ddc5cc5e358ebf64]
link MUX to USB_to_Serial2--><path codeLine="93" d="M765.8875,513.5706 C809.3125,513.5706 857.125,513.5706 898.5875,513.5706 " fill="none" id="MUX-USB_to_Serial2" style="stroke:#A80036;stroke-width:1.25;"/><text fill="#000000" font-family="sans-serif" font-size="16.25" lengthAdjust="spacing" textLength="87.5" x="788.4375" y="505.4395">NMEA-0183</text><!--MD5=[1e991018c604224e21bee33be46e950a]
link seatalk to MUX--><path codeLine="94" d="M665.425,361.2456 C659.6375,389.9581 650.6875,434.3956 644,467.6456 " fill="none" id="seatalk-MUX" style="stroke:#A80036;stroke-width:1.25;"/><!--MD5=[d3503e9009a0bb04abd04d1f7c51e905]
link MUX to VHF--><path codeLine="95" d="M672.55,559.3081 C699.0375,590.6831 733.4125,631.4206 754.5125,656.4081 " fill="none" id="MUX-VHF" style="stroke:#A80036;stroke-width:1.25;"/><text fill="#000000" font-family="sans-serif" font-size="16.25" lengthAdjust="spacing" textLength="87.5" x="721.25" y="614.8145">NMEA-0183</text><!--MD5=[9f54148a75ad9c595cf3695709df9036]
link seatalk to instr--><path codeLine="97" d="M727.65,331.0706 C742.35,331.0706 757.0625,331.0706 771.7625,331.0706 " fill="none" id="seatalk-instr" style="stroke:#A80036;stroke-width:1.25;"/><!--MD5=[ad6772f1975432038ebb751cfe1f2a7f]
link AP to seatalk--><path codeLine="98" d="M571.575,331.0706 C585.975,331.0706 600.3875,331.0706 614.7875,331.0706 " fill="none" id="AP-seatalk" style="stroke:#A80036;stroke-width:1.25;"/><!--MD5=[b4110a565eb63c468bf419165dcda8e1]
link mon1 to comp1--><path codeLine="100" d="M137.5,58.0331 C137.5,84.0456 137.5,126.8206 137.5,155.2456 " fill="none" id="mon1-comp1" style="stroke:#A80036;stroke-width:1.25;"/><text fill="#000000" font-family="sans-serif" font-size="16.25" lengthAdjust="spacing" textLength="78.75" x="138.75" y="113.5645">HDMI/USB</text><!--MD5=[22dd986fdf6041bcc52ce14bb7c5c6e1]
link mon2 to comp2--><path codeLine="101" d="M995,58.0331 C995,84.0456 995,126.8206 995,155.2456 " fill="none" id="mon2-comp2" style="stroke:#A80036;stroke-width:1.25;"/><text fill="#000000" font-family="sans-serif" font-size="16.25" lengthAdjust="spacing" textLength="78.75" x="996.25" y="113.5645">HDMI/USB</text><!--MD5=[c7a617a653465724799adbd37ef139ab]
link comp1 to IMU1--><path codeLine="103" d="M255.125,185.4456 C269.8,185.4456 284.4875,185.4456 299.175,185.4456 " fill="none" id="comp1-IMU1" style="stroke:#A80036;stroke-width:1.25;"/><!--MD5=[fec72a0fdc4e68e40c8e7645bbf772ed]
link IMU2 to comp2--><path codeLine="104" d="M838.3375,185.4456 C852.8125,185.4456 867.3,185.4456 881.7875,185.4456 " fill="none" id="IMU2-comp2" style="stroke:#A80036;stroke-width:1.25;"/><!--MD5=[e1cd31dbbc3c1ef78dc4eb63c17a1f02]
link usb_hub1 to NavTex--><path codeLine="106" d="M131.6375,331.0706 C146.2,331.0706 160.7625,331.0706 175.3375,331.0706 " fill="none" id="usb_hub1-NavTex" style="stroke:#A80036;stroke-width:1.25;"/><!--MD5=[2ed3416b1855305a92b8ea3457f44374]
link comp1 to usb_hub1--><path codeLine="108" d="M123.8375,215.6581 C111.125,242.6206 92.4375,282.2456 80.75,307.0206 " fill="none" id="comp1-usb_hub1" style="stroke:#A80036;stroke-width:1.25;"/><!--MD5=[efbb60de1c9e942b968646a978810334]
link comp2 to usb_hub2--><path codeLine="109" d="M997.275,215.6581 C999.4,242.6206 1002.5125,282.2456 1004.4625,307.0206 " fill="none" id="comp2-usb_hub2" style="stroke:#A80036;stroke-width:1.25;"/><!--MD5=[c9fa2eae015314ee0cc020143a7434cd]
link usb_hub1 to MUX--><path codeLine="111" d="M116.4625,354.8706 C128.475,360.3081 141.475,365.8706 153.75,370.4456 C270.25,413.8956 406.4625,452.9956 504.1875,479.0956 " fill="none" id="usb_hub1-MUX" style="stroke:#A80036;stroke-width:1.25;"/><text fill="#000000" font-family="sans-serif" font-size="16.25" lengthAdjust="spacing" textLength="33.75" x="323.75" y="426.0645">USB</text><!--MD5=[57d645a400dd28191741d6a5c2afc52a]
link usb_hub2 to USB_to_Serial2--><path codeLine="112" d="M1006.25,355.1206 C1006.25,385.0081 1006.25,437.8831 1006.25,473.9831 " fill="none" id="usb_hub2-USB_to_Serial2" style="stroke:#A80036;stroke-width:1.25;"/><!--MD5=[103aab7c931c5dd285e3a6a34be32f2c]
link router1 to router2--><path codeLine="114" d="M547.15,34.1956 C587.45,34.1956 646.4375,34.1956 686.7125,34.1956 " fill="none" id="router1-router2" style="stroke:#A80036;stroke-width:1.25;"/><text fill="#000000" font-family="sans-serif" font-size="16.25" lengthAdjust="spacing" textLength="93.75" x="570" y="26.0645">WAN to LAN</text><!--MD5=[ea7a86228cc7363637a66ec2773ebdf6]
link router1 to Eth_switch--><path codeLine="115" d="M502.5,58.0331 C502.5,85.9956 502.5,133.3331 502.5,161.3956 " fill="none" id="router1-Eth_switch" style="stroke:#A80036;stroke-width:1.25;"/><!--MD5=[fdc45c2a1df09eb218951de378e6e882]
link comp1 to Eth_switch--><path codeLine="117" d="M179.675,155.3831 C226.525,125.7456 304.6,87.4831 373.125,106.6956 C411.1,117.3456 448.9875,142.5456 473.8625,161.5956 " fill="none" id="comp1-Eth_switch" style="stroke:#A80036;stroke-width:1.25;"/><!--MD5=[511eca652ca16ab340652aeda27f923c]
link Eth_switch to comp2--><path codeLine="118" d="M547.0375,161.6581 C611.325,130.3456 733.875,81.9956 838.125,106.6956 C877.8625,116.1081 918.975,137.2456 949.15,155.2456 " fill="none" id="Eth_switch-comp2" style="stroke:#A80036;stroke-width:1.25;"/><!--MD5=[4a271c0b75e72fdcda3baf10196a8568]
@startuml

rectangle AIS [
 MAIANA AIS Base Kit
]

rectangle AIS_to_NMEA [
 MAIANA AIS USB + RS422 Adapter (NMEA-0183)
]

node MUX [
 MUX
 - - - -
 Shipmodule MiniPlex-3USB
]

node comp1 [
 Computer_1 (Strategic)
]

node comp2 [
 Computer_2 (Tactical)
]

rectangle usb_hub1 [
 USB HUB #1
]

rectangle usb_hub2 [
 USB HUB #2
]


rectangle router1 [
 Router1
]

rectangle router2 [
 Router2
]

rectangle Eth_switch [
 Ethernet Switch
]

rectangle mon1 [
 Monitor1 (Nav Station)
]

rectangle mon2 [
 Monitor2 (Cockpit)
]

rectangle USB_to_Serial2 [
 USB to NMEA-0183 (#2)
 - - - -
 FTDI USB to RS-422
]

cloud seatalk [
 SeaTalk1
]

rectangle instr [
 Depth/Speed
 Wind
]

rectangle AP [
 AutoPilot
]

rectangle IMU1 [
 IMU_1
]

rectangle IMU2 [
 IMU_2
]

rectangle VHF [
 VHF
]

rectangle NavTex [
 NavTex
 - - - -
 Nasa Marine PC-NavTex USB
]

AIS -u- AIS_to_NMEA : Cat6

MUX - - AIS_to_NMEA : NMEA-0183
MUX -r- USB_to_Serial2 : NMEA-0183
MUX -u- seatalk
MUX - - VHF : NMEA-0183

seatalk -r- instr
seatalk -l- AP

comp1 -u- mon1 : HDMI/USB
comp2 -u- mon2 : HDMI/USB

comp1 -r- IMU1
comp2 -l- IMU2

usb_hub1 -r- NavTex

comp1 -d- usb_hub1
comp2 -d- usb_hub2

usb_hub1 - - MUX : USB
usb_hub2 - - USB_to_Serial2

router1 -r- router2 : WAN to LAN
Eth_switch -u- router1

Eth_switch -l- comp1
Eth_switch -r- comp2

@enduml

PlantUML version 1.2021.00(Sun Jan 10 05:25:05 EST 2021)
(GPL source distribution)
Java Runtime: OpenJDK Runtime Environment
JVM: OpenJDK 64-Bit Server VM
Default Encoding: Cp1252
Language: en
Country: US
--></g></svg>